<?xml version="1.0" standalone="no"?>
<svg xmlns:xlink="http://www.w3.org/1999/xlink" id="wave" style="transform:rotate(180deg); transition: 0.3s" viewBox="0 0 1440 100" version="1.1" xmlns="http://www.w3.org/2000/svg"><defs><linearGradient id="sw-gradient-0" x1="0" x2="0" y1="1" y2="0"><stop stop-color="rgba(233, 162, 9, 1)" offset="0%"/><stop stop-color="rgba(233, 162, 9, 1)" offset="100%"/></linearGradient></defs><path style="transform:translate(0, 0px); opacity:1" fill="url(#sw-gradient-0)" d="M0,50L24,51.7C48,53,96,57,144,55C192,53,240,47,288,38.3C336,30,384,20,432,26.7C480,33,528,57,576,61.7C624,67,672,53,720,55C768,57,816,73,864,81.7C912,90,960,90,1008,75C1056,60,1104,30,1152,20C1200,10,1248,20,1296,25C1344,30,1392,30,1440,30C1488,30,1536,30,1584,35C1632,40,1680,50,1728,45C1776,40,1824,20,1872,11.7C1920,3,1968,7,2016,21.7C2064,37,2112,63,2160,65C2208,67,2256,43,2304,30C2352,17,2400,13,2448,16.7C2496,20,2544,30,2592,40C2640,50,2688,60,2736,56.7C2784,53,2832,37,2880,31.7C2928,27,2976,33,3024,35C3072,37,3120,33,3168,35C3216,37,3264,43,3312,41.7C3360,40,3408,30,3432,25L3456,20L3456,100L3432,100C3408,100,3360,100,3312,100C3264,100,3216,100,3168,100C3120,100,3072,100,3024,100C2976,100,2928,100,2880,100C2832,100,2784,100,2736,100C2688,100,2640,100,2592,100C2544,100,2496,100,2448,100C2400,100,2352,100,2304,100C2256,100,2208,100,2160,100C2112,100,2064,100,2016,100C1968,100,1920,100,1872,100C1824,100,1776,100,1728,100C1680,100,1632,100,1584,100C1536,100,1488,100,1440,100C1392,100,1344,100,1296,100C1248,100,1200,100,1152,100C1104,100,1056,100,1008,100C960,100,912,100,864,100C816,100,768,100,720,100C672,100,624,100,576,100C528,100,480,100,432,100C384,100,336,100,288,100C240,100,192,100,144,100C96,100,48,100,24,100L0,100Z"/></svg>